<svg width="96" height="31" viewBox="0 0 96 31" fill="none" xmlns="http://www.w3.org/2000/svg">
                <path d="M1.92 26.5H5.22V17.8H10.86C14.91 17.8 17.91 15.94 17.91 11.44C17.91 6.94 14.91 5.05 10.86 5.05H1.92V26.5ZM5.22 14.95V7.9H10.71C13.2 7.9 14.46 9.01 14.46 11.44C14.46 13.84 13.2 14.95 10.71 14.95H5.22ZM20.3686 5.05V26.5H23.3086V5.05H20.3686ZM30.7238 26.92C33.2138 26.92 34.9538 25.93 35.9738 24.34H36.0338C36.1838 26.08 36.9938 26.65 38.4338 26.65C38.9138 26.65 39.4238 26.59 39.9338 26.47V24.67C39.7538 24.7 39.6638 24.7 39.5738 24.7C39.0038 24.7 38.8538 24.13 38.8538 23.02V16C38.8538 12.04 36.3338 10.72 33.1838 10.72C28.5038 10.72 26.5838 13.03 26.4338 15.97H29.4338C29.5838 13.93 30.3938 13.09 33.0638 13.09C35.3138 13.09 35.9738 14.02 35.9738 15.13C35.9738 16.63 34.5038 16.93 32.1038 17.38C28.2938 18.13 25.7138 19.12 25.7138 22.54C25.7138 25.15 27.6638 26.92 30.7238 26.92ZM31.3838 24.55C29.5538 24.55 28.8037 23.77 28.8037 22.33C28.8037 20.74 29.9138 20.02 32.6138 19.45C34.1738 19.12 35.4938 18.79 35.9738 18.34V20.53C35.9738 23.2 34.0238 24.55 31.3838 24.55ZM48.6776 17.26C46.4876 16.75 44.7776 16.63 44.7776 15.04C44.7776 13.9 45.6476 13.12 47.5976 13.12C50.1776 13.12 50.7776 14.47 50.9876 15.64H53.9576C53.7476 13 51.7376 10.75 47.5676 10.75C43.8476 10.75 41.7176 12.52 41.7176 15.16C41.7176 18.34 44.7776 19.15 47.4476 19.75C49.4276 20.17 51.4676 20.38 51.4676 22.3C51.4676 23.41 50.7776 24.55 48.1976 24.55C45.3476 24.55 44.2976 23.17 44.1476 21.4H41.1776C41.2676 24.52 43.5776 26.92 48.2276 26.92C52.2476 26.92 54.5276 25.12 54.5276 22.15C54.5276 18.73 51.4676 17.92 48.6776 17.26ZM55.4716 11.2V13.63H57.6916V22.18C57.6916 25.72 59.2216 26.68 61.7116 26.68C62.3716 26.68 62.8216 26.65 63.6016 26.5V24.13C63.0616 24.22 62.8216 24.25 62.3416 24.25C61.0816 24.25 60.6316 23.89 60.6316 22.27V13.63H63.5716V11.2H60.6316V6.28H57.6916V11.2H55.4716ZM66.0082 5.29V8.47H69.3382V5.29H66.0082ZM66.2182 11.2V26.5H69.1582V11.2H66.2182ZM82.9334 16.75H85.9934C85.6334 13.3 83.0234 10.75 79.0934 10.75C74.5634 10.75 71.5934 14.05 71.5934 18.85C71.5934 23.65 74.5634 26.95 79.1234 26.95C83.0234 26.95 85.7834 24.34 85.9934 20.83H82.9334C82.8134 22.57 81.9134 24.49 79.0934 24.49C75.8534 24.49 74.6534 21.73 74.6534 18.85C74.6534 15.97 75.8534 13.18 79.0934 13.18C81.9134 13.18 82.8134 15.16 82.9334 16.75Z" fill="white"></path>
                <path d="M91.5703 12.6798C93.6596 12.6798 95.2968 11.0738 95.2968 8.90656C95.2968 6.73927 93.6596 5.1333 91.5703 5.1333C89.4965 5.1333 87.8594 6.73927 87.8594 8.90656C87.8594 11.0738 89.4965 12.6798 91.5703 12.6798ZM91.5703 12.0405C89.8707 12.0405 88.5922 10.7308 88.5922 8.90656C88.5922 7.0823 89.8707 5.77257 91.5703 5.77257C93.2854 5.77257 94.5639 7.0823 94.5639 8.90656C94.5639 10.7308 93.2854 12.0405 91.5703 12.0405Z" fill="white"></path>
                <path d="M89.9379 11.0107H90.8479V9.48425H91.6582C92.6034 9.48425 92.2159 10.8346 92.4155 11.0107H93.3666V10.9579C93.1259 10.8874 93.5017 9.24941 92.4801 9.0674V9.05566C92.9792 8.94411 93.3079 8.5801 93.3079 8.01647C93.3079 7.24735 92.7678 6.81289 91.8343 6.81289H89.9379V11.0107ZM90.8479 7.56439H91.6582C92.1631 7.56439 92.3979 7.75227 92.3979 8.13976C92.3979 8.539 92.1396 8.73275 91.6523 8.73275H90.8479V7.56439Z" fill="white"></path>
</svg>